<svg data-v-0dd9719b="" version="1.0" xmlns="http://www.w3.org/2000/svg" xmlns:xlink="http://www.w3.org/1999/xlink" width="100%" height="100%" viewBox="0 0 340.000000 250.000000" preserveAspectRatio="xMidYMid meet" color-interpolation-filters="sRGB" style="margin: auto;"> <rect data-v-0dd9719b="" x="0" y="0" width="100%" height="100%" fill="#fff" fill-opacity="1" class="background"></rect> <rect data-v-0dd9719b="" x="0" y="0" width="100%" height="100%" fill="url(#watermark)" fill-opacity="1" class="watermarklayer"></rect> <g data-v-0dd9719b="" fill="#3699ea" class="icon-text-wrapper icon-svg-group iconsvg" transform="translate(49.665000915527344,96.67753791814367)"><g class="iconsvg-imagesvg" transform="translate(0,0)"><g><rect fill="#3699ea" fill-opacity="0" stroke-width="2" x="0" y="0" width="60" height="56.644921310763486" class="image-rect"></rect> <svg x="0" y="0" width="60" height="56.644921310763486" filtersec="colorsb8254677723" class="image-svg-svg primary" style="overflow: visible;"><svg xmlns="http://www.w3.org/2000/svg" viewBox="-0.003525275969877839 -0.0038033658638596535 264.3553466796875 249.5738983154297"><g><g fill="#3699ea"><path d="M88.26 14.26a19 19 0 0 0 18.69 5.47l65.67-17a1.38 1.38 0 0 0-.37-2.73L87.36 1a5 5 0 0 0-3.63 8.44zM204.69 14.78a10.81 10.81 0 0 0-14-7l-65.62 23.58a5.34 5.34 0 0 0-.92 9.62l98.48 58.41a4.39 4.39 0 0 0 6.43-5.06zM103 177.28a6.6 6.6 0 0 0 9.88 5.69l99.32-57.07.09-.05a6.62 6.62 0 0 0 .08-11.44L112.1 54.94a6.42 6.42 0 0 0-9.7 5.55zM263.73 136.83a5.62 5.62 0 0 0-5.94-8.11 18.67 18.67 0 0 0-14.57 12.6l-27.67 85.05a.92.92 0 0 0 1.69.7zM258.31 113.62a4.34 4.34 0 0 0 4.7-6.3L217.6 22.4a.76.76 0 0 0-1.39.63L246 103.09a16.74 16.74 0 0 0 12.31 10.53zM75.55 180.29a5.87 5.87 0 0 0 9.24-4.84l-.53-112.18A5.5 5.5 0 0 0 75.34 59L3.2 116.43A8.46 8.46 0 0 0 3.62 130zM2.32 99.68a1.64 1.64 0 0 0 2.53 2l66.77-62a11.35 11.35 0 0 0 .6-16l-7.49-8.08A8.45 8.45 0 0 0 51.25 17zM107.85 219.33a15.23 15.23 0 0 0-17.45 5.08l-10.09 13.38a5.83 5.83 0 0 0 4.51 9.35l93.49 2.43a1.9 1.9 0 0 0 .71-3.67zM226.49 147.65a4.73 4.73 0 0 0-6.94-5.3l-95.85 55.31a5.83 5.83 0 0 0 .5 10.36l66.92 30.4a9.55 9.55 0 0 0 13.2-6.28zM74.21 215.48a11.75 11.75 0 0 0-2.06-16.19L6 146.19a2.07 2.07 0 0 0-3.08 2.67l47.64 80.84a7.54 7.54 0 0 0 12.54.68z"></path></g></g></svg></svg> <!----></g></g> <g transform="translate(67,6.972461700439453)"><g data-gra="path-name" fill-rule="" class="tp-name iconsvg-namesvg"><g transform="scale(1)"><g><path d="M23.04-38.56L23.04-38.56Q21.65-33.52 20.63-28.52 19.6-23.53 18.88-18.56 18.15-13.59 17.64-8.65 17.13-3.71 16.73 1.21L16.73 1.21 6.61 0.54Q5.99-4.4 5.37-9.31 4.75-14.21 4.01-19.08 3.28-23.96 2.39-28.78 1.5-33.6 0.38-38.4L0.38-38.4Q0.91-38.4 1.45-38.36 1.99-38.32 2.47-38.32L2.47-38.32Q3.97-38.32 5.34-38.4 6.71-38.48 8.3-38.56L8.3-38.56Q8.49-34.7 8.81-30.55 9.13-26.4 9.56-22.17 9.99-17.94 10.53-13.72 11.06-9.51 11.71-5.56L11.71-5.56Q12.38-9.51 12.96-13.72 13.54-17.94 13.96-22.18 14.39-26.43 14.68-30.59 14.96-34.75 15.07-38.62L15.07-38.62Q16.19-38.48 17.24-38.44 18.29-38.4 19.31-38.4L19.31-38.4Q21.05-38.4 23.04-38.56ZM43.37 0.73L37.17 1.1Q37.01 0.27 36.87-0.59 36.74-1.45 36.66-2.36L36.66-2.36Q35.42-0.54 33.7 0.44 31.98 1.42 29.94 1.42L29.94 1.42Q28.9 1.42 27.8 1.09 26.69 0.75 25.79-0.08 24.9-0.91 24.32-2.35 23.74-3.79 23.74-5.99L23.74-5.99Q23.74-7.81 24.28-9.17 24.81-10.53 25.67-11.55 26.53-12.57 27.61-13.32 28.68-14.07 29.74-14.66 30.8-15.25 31.77-15.76 32.74-16.27 33.35-16.78L33.35-16.78Q34.54-17.72 35.41-18.79 36.28-19.85 36.82-21L36.82-21Q36.71-22.85 36.43-24.05 36.15-25.24 35.69-25.96 35.23-26.67 34.58-26.95 33.92-27.23 33.09-27.23L33.09-27.23Q31.85-27.23 31-26.69 30.16-26.16 29.62-25.41L29.62-25.41Q30.29-24.98 30.66-24.49 31.02-24.01 31.21-23.55L31.21-23.55Q31.42-23.04 31.45-22.5L31.45-22.5Q31.45-20.68 30.41-19.71 29.38-18.75 27.77-18.75L27.77-18.75Q26.94-18.75 26.24-19.13 25.54-19.52 25.02-20.22 24.49-20.92 24.2-21.89 23.9-22.85 23.9-23.98L23.9-23.98Q23.9-25.11 24.41-26.37 24.92-27.63 26.05-28.72 27.18-29.81 28.95-30.52 30.72-31.23 33.25-31.23L33.25-31.23Q35.77-31.23 37.57-30.25 39.37-29.27 40.52-27.65 41.68-26.02 42.2-23.9 42.73-21.78 42.73-19.52L42.73-19.52Q42.73-17.83 42.7-15.84 42.67-13.86 42.67-11.76L42.67-11.76Q42.67-10.02 42.7-8.27 42.73-6.53 42.81-4.9 42.89-3.28 43.02-1.84 43.16-0.4 43.37 0.73L43.37 0.73ZM36.55-8.92L36.77-14.64Q35.83-13.51 34.75-12.7L34.75-12.7Q33.95-12.14 33.02-11.44 32.09-10.74 31.3-9.96 30.51-9.18 29.98-8.34 29.46-7.49 29.46-6.61L29.46-6.61Q29.46-5.4 30.05-4.54 30.64-3.68 31.72-3.68L31.72-3.68Q32.71-3.68 33.49-4.22 34.27-4.75 34.87-5.55 35.48-6.34 35.89-7.25 36.31-8.16 36.55-8.92L36.55-8.92ZM65.15-24.2L65.15-24.2Q65.15-22.96 64.69-22.1 64.24-21.24 63.59-20.71 62.95-20.17 62.25-19.93 61.55-19.69 61.07-19.69L61.07-19.69Q60.59-19.69 59.91-19.86 59.24-20.03 58.64-20.49 58.03-20.95 57.6-21.71 57.18-22.48 57.18-23.66L57.18-23.66Q57.2-24.3 57.42-24.92L57.42-24.92Q57.6-25.46 57.99-26.04 58.38-26.61 59.11-27.07L59.11-27.07Q58.63-27.77 58.14-28.14 57.66-28.52 57.28-28.71L57.28-28.71Q56.83-28.92 56.45-28.98L56.45-28.98Q55.62-28.98 54.95-28.64 54.27-28.31 53.8-27.76 53.33-27.2 53.08-26.48 52.82-25.75 52.82-24.98L52.82-24.98Q52.82-23.98 52.96-23.18 53.09-22.37 53.58-21.54 54.06-20.71 55.03-19.74 55.99-18.77 57.66-17.48L57.66-17.48Q59.32-16.19 60.56-14.97 61.79-13.75 62.6-12.57 63.41-11.39 63.81-10.19 64.21-9 64.21-7.71L64.21-7.71Q64.21-6.85 64.04-5.84 63.86-4.83 63.45-3.8 63.03-2.77 62.34-1.81 61.66-0.86 60.65-0.11 59.65 0.64 58.29 1.09 56.93 1.53 55.19 1.53L55.19 1.53Q52.56 1.53 50.7 0.75 48.85-0.03 47.66-1.14 46.46-2.26 45.91-3.49 45.36-4.73 45.36-5.67L45.36-5.67Q45.36-6.66 45.6-7.52 45.84-8.38 46.37-9.02 46.89-9.67 47.71-10.03 48.53-10.39 49.68-10.39L49.68-10.39Q50.65-10.39 51.44-10.1 52.23-9.8 52.81-9.22 53.39-8.65 53.71-7.81 54.03-6.98 54.03-5.94L54.03-5.94Q54.01-5.48 53.85-5L53.85-5Q53.71-4.59 53.39-4.11 53.07-3.63 52.5-3.2L52.5-3.2Q52.88-2.9 53.24-2.75 53.6-2.6 53.9-2.55L53.9-2.55Q54.22-2.47 54.54-2.47L54.54-2.47Q54.89-2.47 55.36-2.67 55.83-2.87 56.26-3.3 56.69-3.73 56.99-4.35 57.28-4.97 57.28-5.83L57.28-5.83Q57.28-6.69 57.14-7.4 56.99-8.11 56.52-8.88 56.05-9.64 55.16-10.55 54.27-11.47 52.82-12.76L52.82-12.76Q51.37-14.05 50.25-15.27 49.12-16.49 48.35-17.81 47.59-19.12 47.19-20.57 46.78-22.02 46.78-23.77L46.78-23.77Q46.78-25.49 47.47-27.1 48.15-28.71 49.41-29.96 50.68-31.21 52.48-31.94 54.27-32.68 56.5-32.68L56.5-32.68Q58.76-32.68 60.4-31.98 62.04-31.29 63.08-30.12 64.13-28.95 64.64-27.42 65.15-25.89 65.15-24.2ZM70.6-40.71L77.42-40.82Q77.21-38.05 77.08-35.38 76.94-32.71 76.81-30.02L76.81-30.02Q77.99-30.08 79.14-30.12 80.3-30.16 81.51-30.24L81.51-30.24 81.61-23.36Q80.32-23.58 79.06-23.71 77.8-23.85 76.59-23.93L76.59-23.93Q76.51-21.65 76.5-19.42 76.48-17.19 76.48-14.9L76.48-14.9Q76.48-10.82 76.58-6.79 76.67-2.77 76.89 1.32L76.89 1.32 69.88 1.21Q70.23-5.1 70.46-11.4 70.68-17.7 70.76-24.09L70.76-24.09Q69.64-24.04 68.51-23.97 67.38-23.9 66.2-23.82L66.2-23.82 66.41-30.19Q67.51-30.1 68.6-30.06 69.69-30.02 70.76-29.97L70.76-29.97Q70.76-32.66 70.71-35.33 70.66-38 70.6-40.71L70.6-40.71ZM93.16 1.53L93.16 1.53Q90.5 1.53 88.58 0.38 86.66-0.78 85.41-2.85 84.17-4.91 83.57-7.76 82.98-10.61 82.98-13.96L82.98-13.96Q82.98-17.86 83.68-21.11 84.38-24.36 85.74-26.69 87.09-29.03 89.09-30.33 91.09-31.64 93.7-31.64L93.7-31.64Q96.33-31.64 98.24-30.53 100.14-29.43 101.39-27.45 102.64-25.46 103.23-22.69 103.82-19.93 103.82-16.6L103.82-16.6Q103.82-14.88 103.62-12.86 103.42-10.85 102.95-8.84 102.48-6.82 101.7-4.95 100.92-3.09 99.74-1.64 98.56-0.19 96.93 0.67 95.31 1.53 93.16 1.53ZM97.35-18.58L97.35-18.58Q97.35-20.63 97.16-22.25 96.98-23.87 96.56-25 96.14-26.13 95.51-26.73 94.88-27.34 93.99-27.34L93.99-27.34Q93.03-27.34 92.19-26.32 91.36-25.3 90.73-23.36 90.1-21.43 89.74-18.65 89.38-15.87 89.38-12.38L89.38-12.38Q89.38-10.12 89.59-8.34 89.8-6.55 90.23-5.3 90.66-4.06 91.3-3.4 91.93-2.74 92.79-2.74L92.79-2.74Q93.65-2.74 94.32-3.45 94.99-4.16 95.48-5.37 95.98-6.58 96.34-8.18 96.71-9.78 96.92-11.53 97.14-13.29 97.24-15.12 97.35-16.95 97.35-18.58ZM106.97-29.86L113.95-29.76 113.79-27.55Q114.67-29.03 115.68-29.81 116.69-30.59 117.55-30.91 118.41-31.23 118.98-31.26 119.56-31.29 119.61-31.29L119.61-31.29Q121.6-31.29 123.08-30.37 124.56-29.46 125.52-27.73 126.49-26 126.96-23.51 127.43-21.03 127.43-17.89L127.43-17.89Q127.43-15.58 127.36-13.17 127.29-10.77 127.09-8.39 126.89-6.02 126.56-3.76 126.22-1.5 125.66 0.54L125.66 0.54 119.4-0.21Q120.02-3.41 120.37-6.18 120.72-8.94 120.88-11.01L120.88-11.01Q121.06-13.43 121.09-15.44L121.09-15.44Q121.09-17.99 120.93-19.89 120.77-21.78 120.35-23.03 119.94-24.28 119.21-24.9 118.49-25.51 117.36-25.51L117.36-25.51Q116.61-25.35 115.85-24.44L115.85-24.44Q115.21-23.66 114.48-21.95 113.76-20.25 113.22-17.16L113.22-17.16Q113.14-15.07 113.13-13.01 113.12-10.96 113.12-8.65L113.12-8.65Q113.12-6.69 113.12-4.43 113.12-2.18 113.17 0.67L113.17 0.67 107.07 0.54Q107.15-2.2 107.19-5.28 107.23-8.35 107.23-12.11L107.23-12.11Q107.23-15.84 107.18-20.2 107.13-24.55 106.97-29.86L106.97-29.86ZM150.01-5.77L150.01-5.77Q150.01-4.19 149.29-2.79 148.56-1.4 147.33-0.38 146.09 0.64 144.43 1.24 142.76 1.83 140.88 1.83L140.88 1.83Q139.62 1.83 138.33 1.48 137.04 1.13 135.86 0.32 134.68-0.48 133.63-1.8 132.59-3.12 131.82-5.02 131.05-6.93 130.61-9.49 130.17-12.06 130.17-15.39L130.17-15.39Q130.17-18.53 130.61-20.95 131.05-23.36 131.82-25.16 132.59-26.96 133.61-28.18 134.63-29.41 135.79-30.17 136.96-30.94 138.21-31.26 139.46-31.58 140.67-31.58L140.67-31.58Q142.47-31.58 144.08-31 145.69-30.43 146.9-29.3 148.11-28.17 148.82-26.52 149.53-24.87 149.53-22.72L149.53-22.72Q149.53-20.79 148.74-18.81 147.95-16.84 146.39-15.08 144.83-13.32 142.54-11.88 140.24-10.45 137.26-9.61L137.26-9.61Q137.42-7.95 137.73-6.58 138.04-5.21 138.51-4.24 138.98-3.28 139.61-2.74 140.24-2.2 141.07-2.2L141.07-2.2Q141.61-2.23 142.09-2.39L142.09-2.39Q142.52-2.52 142.97-2.82 143.41-3.12 143.7-3.68L143.7-3.68Q143.01-4 142.63-4.51 142.25-5.02 142.07-5.48L142.07-5.48Q141.85-6.02 141.82-6.61L141.82-6.61Q141.82-7.9 142.33-8.7 142.84-9.51 143.54-9.96 144.24-10.42 144.97-10.59 145.69-10.77 146.12-10.77L146.12-10.77Q146.58-10.77 147.24-10.58 147.89-10.39 148.51-9.86 149.13-9.32 149.57-8.34 150.01-7.36 150.01-5.77ZM143.38-22.67L143.38-22.67Q143.38-23.63 143.21-24.51 143.03-25.38 142.7-26.02 142.36-26.67 141.86-27.06 141.37-27.45 140.72-27.45L140.72-27.45Q139.62-27.45 138.92-26.44 138.23-25.43 137.8-23.77 137.37-22.1 137.2-19.93 137.04-17.75 137.04-15.39L137.04-15.39 137.04-13.43Q138.41-14.15 139.58-15.15 140.75-16.14 141.6-17.34 142.44-18.53 142.91-19.87 143.38-21.22 143.38-22.67ZM153-40.87L159.98-40.77Q159.71-36.74 159.52-33.45 159.33-30.16 159.21-27.29 159.09-24.41 159.04-21.78 158.98-19.15 158.98-16.44L158.98-16.44Q160.27-17.86 161.37-19.48 162.48-21.11 163.38-22.84 164.27-24.57 164.96-26.37 165.64-28.17 166.13-29.92L166.13-29.92 173.41-29.27Q172.17-26.67 170.96-24.65 169.75-22.64 168.64-21.12 167.52-19.6 166.57-18.56 165.62-17.51 164.87-16.84L164.87-16.84Q165.99-16.46 166.83-15.95 167.66-15.44 168.2-14.99L168.2-14.99Q168.84-14.45 169.27-13.86L169.27-13.86Q169.78-13.02 170.09-11.96 170.4-10.9 170.63-9.72 170.85-8.54 171.08-7.26 171.31-5.99 171.66-4.7 172.01-3.41 172.57-2.16 173.14-0.91 174.05 0.21L174.05 0.21 166.91 0.21Q166.37-1.15 166.03-2.55 165.7-3.95 165.48-5.08L165.48-5.08Q165.24-6.39 165.13-7.65L165.13-7.65Q164.89-9.29 164.19-10.58L164.19-10.58Q163.9-11.15 163.46-11.67 163.01-12.19 162.41-12.61 161.8-13.02 161.03-13.28 160.25-13.54 159.25-13.54L159.25-13.54 158.98-13.54Q158.98-10.5 159.02-7.06 159.06-3.63 159.2 0.67L159.2 0.67 152.54 0.54Q152.78-3.25 152.97-6.36 153.16-9.48 153.28-12.21 153.4-14.93 153.47-17.4 153.53-19.87 153.53-22.4L153.53-22.4Q153.53-24.3 153.51-26.33 153.48-28.36 153.41-30.6 153.34-32.84 153.24-35.38 153.13-37.92 153-40.87L153-40.87Z" transform="translate(-0.3800000250339508, 40.869998931884766)"></path></g> <!----> <!----> <!----> <!----> <!----> <!----> <!----></g></g> <!----></g></g><defs v-gra="od"></defs></svg>